<?xml version="1.0" encoding="utf-8"?>
<!-- Generator: Adobe Illustrator 16.0.0, SVG Export Plug-In . SVG Version: 6.00 Build 0)  -->
<!DOCTYPE svg PUBLIC "-//W3C//DTD SVG 1.1//EN" "http://www.w3.org/Graphics/SVG/1.1/DTD/svg11.dtd">
<svg version="1.1" id="Layer_1" xmlns="http://www.w3.org/2000/svg" xmlns:xlink="http://www.w3.org/1999/xlink" x="0px" y="0px"
	 width="612px" height="792px" viewBox="0 0 612 792" enable-background="new 0 0 612 792" xml:space="preserve">
<title>Business_SVG</title>
<polygon opacity="0.3" fill="#D6D8E5" enable-background="new    " points="244.779,739.82 147.652,683.507 244.779,627.71 
	341.906,683.507 "/>
<polygon opacity="0.3" fill="#D6D8E5" enable-background="new    " points="398.736,649.926 301.608,594.129 398.736,537.816 
	495.347,594.129 "/>
<polygon opacity="0.85" fill="#1351A8" enable-background="new    " points="456.082,113.66 358.955,57.863 456.082,1.55 
	553.209,57.863 "/>
<polygon fill="#8C50FF" points="456.082,617.378 358.955,561.581 358.955,57.863 456.082,113.66 "/>
<polygon opacity="0.8" fill="#1351A8" enable-background="new    " points="456.082,617.378 358.955,561.581 358.955,57.863 
	456.082,113.66 "/>
<polygon fill="#8C50FF" points="553.209,561.581 456.082,617.378 456.082,113.66 553.209,57.863 "/>
<polygon fill="#1351A8" points="553.209,561.581 456.082,617.378 456.082,113.66 553.209,57.863 "/>
<polygon fill="#E9EAF2" points="310.392,365.777 213.781,309.464 310.392,253.667 407.519,309.464 "/>
<polygon fill="#E9EAF2" points="310.392,701.072 213.781,645.276 213.781,309.464 310.392,365.777 "/>
<polygon opacity="0.1" enable-background="new    " points="310.392,701.072 213.781,645.276 213.781,309.464 310.392,365.777 "/>
<polygon fill="#E9EAF2" points="407.519,645.276 310.392,701.072 310.392,365.777 407.519,309.464 "/>
<polygon opacity="0.15" enable-background="new    " points="407.519,645.276 310.392,701.072 310.392,365.777 407.519,309.464 "/>
<polygon opacity="0.85" fill="#1351A8" enable-background="new    " points="155.918,631.327 58.791,575.53 155.918,519.733 
	252.528,575.53 "/>
<polygon fill="#8C50FF" points="155.918,792 58.791,736.203 58.791,575.53 155.918,631.327 "/>
<polygon opacity="0.8" fill="#1351A8" enable-background="new    " points="155.918,792 58.791,736.203 58.791,575.53 
	155.918,631.327 "/>
<polygon fill="#8C50FF" points="252.528,736.203 155.918,792 155.918,631.327 252.528,575.53 "/>
<polygon fill="#1351A8" points="252.528,736.203 155.918,792 155.918,631.327 252.528,575.53 "/>
<g id="Men_11">
	<path id="_Контур_15" fill="#FFCEA9" d="M319.69,223.703c7.233,13.432,16.532,25.315,26.865,36.681
		c3.1,3.1,25.315-5.167,20.665-7.75c-4.649-2.583-19.115-22.731-26.348-36.164c-6.2-16.016-11.366-33.064-15.499-49.597
		c-4.65-16.533-8.783-40.814-11.883-52.697c-1.55-8.783-8.266-15.499-17.049-17.566c-7.75-2.066-13.433,0.517-11.883,9.816
		C286.626,123.992,300.059,190.121,319.69,223.703z"/>
	<path fill="#38226D" d="M306.775,483.053c6.716,5.683,17.049,0.517,17.565,1.033c8.266,7.75,16.532,14.466,25.314,21.182
		c4.134,3.101,10.85,7.75,9.816,14.466c-2.066,11.883-20.665,8.267-27.898,4.65c-7.232-3.616-12.916-9.3-19.632-13.433
		c-4.649-3.1-9.299-4.649-10.333-10.333C302.125,497.002,305.742,483.053,306.775,483.053z"/>
	<path fill="#9C73FF" d="M302.642,498.035c1.033,5.683,5.683,7.233,10.333,10.333c6.716,4.133,12.916,10.332,19.632,13.949
		c6.717,3.616,22.732,6.716,27.382-1.55c-2.583,11.365-20.665,7.749-27.898,4.133c-7.232-3.616-12.916-9.3-19.632-13.433
		c-4.649-3.1-9.299-4.649-10.333-10.333C302.125,499.585,302.642,498.552,302.642,498.035z"/>
	<path fill="#38226D" d="M377.037,442.755c6.717,5.684,19.115-0.517,19.632,0c7.233,7.233,14.982,14.466,22.732,20.666
		c4.133,3.616,10.849,7.749,9.815,14.466c-2.066,11.883-20.665,8.266-27.897,4.649c-7.233-3.616-12.916-9.3-19.633-13.433
		c-4.649-3.1-9.299-4.649-10.332-10.332C371.871,452.571,373.938,447.405,377.037,442.755z"/>
	<path fill="#9C73FF" d="M371.871,456.704c1.033,5.684,5.683,7.233,10.332,10.333c6.717,4.133,12.916,10.333,19.633,13.949
		c6.716,3.616,22.731,6.716,27.381-1.55c-2.583,11.366-20.665,7.749-27.897,4.133c-7.233-3.616-12.916-9.3-19.633-13.433
		c-4.649-3.1-9.299-4.649-10.332-10.332C371.871,458.254,371.871,457.221,371.871,456.704z"/>
	<path id="_Контур_16" fill="#1351A8" d="M214.297,261.417c-7.75,48.047,13.433,65.612,41.331,75.945
		c19.632,7.233,48.047,18.599,48.047,18.599s-0.517,10.333-0.517,34.098c0,20.665,2.583,96.61,2.583,96.61
		c6.716,3.617,14.465,3.617,21.182,0c0,0,11.366-57.862,13.433-84.211c3.1-35.648,8.782-58.896,6.716-66.646
		c-1.55-6.716-40.297-25.832-52.696-36.165l81.628,27.382c-1.55,8.783-2.066,17.565-2.066,26.865
		c0.517,27.898,2.066,89.378,2.066,89.378s11.366,8.266,20.665,0c0,0,20.666-120.893,18.083-136.908
		c-2.584-14.982-73.879-45.98-86.795-56.83c-4.649-3.616-10.333-5.166-16.016-4.133L214.297,261.417z"/>
	<g id="_Группа_3">
		<g id="_Группа_4">
			<path id="_Контур_17" fill="#F4F4F4" d="M409.585,281.565l-54.763-31.515c-1.033-0.517-2.066-0.517-3.101,0l-95.577,55.28
				l55.796,32.548L409.585,281.565z"/>
			<path fill="#3A2C6D" d="M309.358,326.513l-4.133,2.583c-0.517,0-0.517,0.517,0,0.517l4.133,2.067c0.517,0,1.033,0,1.55,0
				l4.133-2.583c0.517,0,0.517-0.517,0-0.517l-4.133-2.066C310.392,325.996,309.875,325.996,309.358,326.513z"/>
			<path fill="#3A2C6D" d="M315.558,322.896l-4.133,2.583c-0.517,0,0,0.517,0,0.517l4.133,2.066c0.517,0,1.033,0,1.55,0l4.133-2.583
				c0.518,0,0.518-0.517,0-0.517l-4.133-2.066C316.591,322.38,316.074,322.38,315.558,322.896z"/>
			<path fill="#3A2C6D" d="M321.24,319.28l-4.133,2.583c-0.517,0-0.517,0.517,0,0.517l4.133,2.066c0.518,0,1.034,0,1.551,0
				l4.133-2.583c0.517,0,0.517-0.517,0-0.517l-4.133-2.066C322.274,319.28,321.758,319.28,321.24,319.28z"/>
			<path fill="#3A2C6D" d="M327.44,316.18l-4.133,2.583c-0.517,0-0.517,0.517,0,0.517l4.133,2.066c0.517,0,1.033,0,1.55,0
				l4.133-2.583c0.517,0,0-0.517,0-0.517l-4.133-2.066C328.474,315.664,327.44,315.664,327.44,316.18z"/>
			<path fill="#3A2C6D" d="M333.123,312.563l-4.133,2.583c-0.517,0-0.517,0.517,0,0.517l4.133,2.066c0.517,0,1.033,0,1.55,0
				l4.134-2.583c0.517,0,0.517-0.517,0-0.517l-4.134-2.066C334.156,312.047,333.64,312.047,333.123,312.563z"/>
			<path fill="#3A2C6D" d="M339.323,308.947l-4.134,2.583c-0.517,0-0.517,0.517,0,0.517l4.134,2.066c0.517,0,1.033,0,1.55,0
				l4.133-2.583c0.517,0,0.517-0.517,0-0.517l-4.133-2.066C339.84,308.947,339.323,308.947,339.323,308.947z"/>
			<path fill="#3A2C6D" d="M345.006,305.847l-4.133,2.583c-0.517,0-0.517,0.517,0,0.517l4.133,2.066c0.517,0,1.033,0,1.55,0
				l4.133-2.583c0.517,0,0.517-0.517,0-0.517l-4.133-2.067C346.039,305.331,345.522,305.331,345.006,305.847z"/>
			<path fill="#3A2C6D" d="M350.688,302.231l-4.133,2.583c-0.517,0-0.517,0.517,0,0.517l4.133,2.067c0.517,0,1.033,0,1.55,0
				l4.134-2.583c0.517,0,0.517-0.517,0-0.517l-4.134-2.066C351.722,302.231,351.205,302.231,350.688,302.231z"/>
			<path fill="#3A2C6D" d="M356.889,298.614l-4.133,2.583c-0.518,0,0,0.517,0,0.517l4.133,2.066c0.517,0,1.033,0,1.55,0l4.133-2.583
				c0.517,0,0-0.517,0-0.517l-4.133-2.067C357.405,298.614,357.405,298.614,356.889,298.614z"/>
			<path fill="#3A2C6D" d="M362.571,295.515l-4.133,2.066c-0.517,0-0.517,0.517,0,0.517l4.133,2.067c0.517,0,1.033,0,1.55,0
				l4.133-2.583c0.518,0,0-0.517,0-0.517l-4.133-2.066C363.604,294.998,363.088,294.998,362.571,295.515z"/>
			<path fill="#3A2C6D" d="M368.771,291.898l-4.134,2.583c-0.517,0-0.517,0.517,0,0.517l4.134,2.066c0.517,0,1.033,0,1.55,0
				l4.133-2.066c0.517,0,0.517-0.517,0-0.517l-4.133-2.066C369.288,291.898,368.771,291.898,368.771,291.898z"/>
			<path fill="#3A2C6D" d="M374.454,288.798l-4.133,2.583c-0.517,0-0.517,0.517,0,0.517l4.133,2.066c0.517,0,1.033,0,1.55,0
				l4.133-2.583c0.517,0,0.517-0.517,0-0.517l-4.133-2.067C375.487,288.282,374.971,288.282,374.454,288.798z"/>
			<path fill="#3A2C6D" d="M380.137,285.182l-4.133,2.583c-0.517,0-0.517,0.517,0,0.517l4.133,2.066c0.517,0,1.033,0,1.55,0
				l4.134-2.583c0.517,0,0.517-0.517,0-0.517l-4.134-2.066C381.17,285.182,380.653,285.182,380.137,285.182z"/>
			<path fill="#3A2C6D" d="M389.437,280.016l-7.233,4.133c-0.517,0-0.517,0.517,0,0.517l4.134,2.066c0.517,0,1.033,0,1.55,0
				l6.716-4.133c0.517,0,0.517-0.517,0-0.517l-4.133-2.066C389.953,280.016,389.437,280.016,389.437,280.016z"/>
			<path fill="#3A2C6D" d="M312.458,317.73l-4.133,2.583c-0.517,0-0.517,0.517,0,0.517l4.133,2.067c0.517,0,1.033,0,1.55,0
				l4.133-2.583c0.517,0,0.517-0.517,0-0.517l-4.133-2.066C313.491,317.73,312.975,317.73,312.458,317.73z"/>
			<path fill="#3A2C6D" d="M318.657,314.113l-4.133,2.583c-0.517,0-0.517,0.517,0,0.517l4.133,2.066c0.517,0,1.033,0,1.55,0
				l4.134-2.583c0.517,0,0.517-0.517,0-0.517l-4.134-2.067C319.174,314.113,318.657,314.113,318.657,314.113z"/>
			<path fill="#3A2C6D" d="M324.341,311.014l-4.134,2.583c-0.517,0-0.517,0.517,0,0.517l4.134,2.067c0.517,0,1.033,0,1.55,0
				l4.133-2.583c0.517,0,0-0.517,0-0.517l-4.133-2.066C325.374,310.497,324.857,310.497,324.341,311.014z"/>
			<path fill="#3A2C6D" d="M330.54,307.397l-4.133,2.583c-0.517,0-0.517,0.517,0,0.517l4.133,2.066c0.517,0,1.033,0,1.55,0
				l4.133-2.583c0.517,0,0.517-0.517,0-0.517l-4.133-2.066C331.057,307.397,330.54,307.397,330.54,307.397z"/>
			<path fill="#3A2C6D" d="M336.223,304.297l-4.133,2.583c-0.517,0,0,0.517,0,0.517l4.133,2.066c0.517,0,1.034,0,1.551,0
				l4.133-2.583c0.517,0,0.517-0.517,0-0.517l-4.133-2.067C337.257,303.781,336.739,303.781,336.223,304.297z"/>
			<path fill="#3A2C6D" d="M341.906,300.681l-4.133,2.066c-0.517,0-0.517,0.517,0,0.517l4.133,2.066c0.517,0,1.033,0,1.55,0
				l4.133-2.583c0.517,0,0.517-0.517,0-0.517l-4.133-2.066C342.939,300.165,342.423,300.165,341.906,300.681z"/>
			<path fill="#3A2C6D" d="M348.105,297.064l-4.133,2.583c-0.517,0-0.517,0.517,0,0.517l4.133,2.066c0.517,0,1.033,0,1.55,0
				l4.134-2.583c0.517,0,0.517-0.517,0-0.517l-4.134-2.066C348.622,297.064,348.105,297.064,348.105,297.064z"/>
			<path fill="#3A2C6D" d="M353.789,293.965l-4.134,2.583c-0.517,0,0,0.517,0,0.517l4.134,2.066c0.517,0,1.033,0,1.55,0l4.133-2.583
				c0.517,0,0.517-0.517,0-0.517l-4.133-2.066C354.822,293.965,354.306,293.965,353.789,293.965z"/>
			<path fill="#3A2C6D" d="M359.988,290.348l-4.133,2.583c-0.517,0-0.517,0.517,0,0.517l4.133,2.066c0.517,0,1.033,0,1.55,0
				l4.133-2.583c0.517,0,0.517-0.517,0-0.517l-4.133-2.067C360.505,290.348,359.988,290.348,359.988,290.348z"/>
			<path fill="#3A2C6D" d="M365.671,287.249l-4.133,2.066c-0.517,0-0.517,0.517,0,0.517l4.133,2.067c0.517,0,1.033,0,1.55,0
				l4.134-2.583c0.517,0,0.517-0.517,0-0.517l-4.134-2.066C366.704,286.732,366.188,286.732,365.671,287.249z"/>
			<path fill="#3A2C6D" d="M371.871,283.632l-4.134,2.583c-0.517,0,0,0.517,0,0.517l4.134,2.066c0.517,0,1.033,0,1.55,0l4.133-2.583
				c0.517,0,0.517-0.517,0-0.517l-4.133-2.067C372.388,283.632,371.871,283.632,371.871,283.632z"/>
			<path fill="#3A2C6D" d="M377.554,280.016l-4.133,2.583c-0.517,0-0.517,0.517,0,0.517l4.133,2.067c0.517,0,1.033,0,1.55,0
				l4.133-2.583c0.518,0,0.518-0.517,0-0.517l-4.133-2.066C378.587,280.016,378.07,280.016,377.554,280.016z"/>
			<path fill="#3A2C6D" d="M306.775,321.346l-7.233,4.133c-0.517,0,0,0.517,0,0.517l4.133,2.066c0.517,0,1.033,0,1.55,0l7.233-4.133
				c0.517,0,0-0.517,0-0.517l-4.133-2.067C307.292,320.83,307.292,320.83,306.775,321.346z"/>
			<path fill="#3A2C6D" d="M388.92,280.016l-4.133,2.583c-0.517,0-1.033,0-1.033,0l-4.65-2.583c0,0-0.517-0.517,0-0.517l0,0l0,0
				c0.517,0,0.517-0.517,0-0.517l-4.649-2.583c-0.517,0-0.517-0.517,0-0.517l2.583-1.55c0.517,0,1.033,0,1.033,0l4.133,2.583
				l1.033,0.517l0.518,0.517l0.517,0.517L388.92,280.016C389.437,279.499,389.437,280.016,388.92,280.016z"/>
			<path fill="#3A2C6D" d="M286.626,313.08l-4.133,2.067c-0.517,0-0.517,0.517,0,0.517l4.133,2.066c0.517,0,1.034,0,1.55,0
				l4.133-2.583c0.517,0,0.517-0.517,0-0.517l-4.133-2.066C287.66,312.563,287.143,312.563,286.626,313.08z"/>
			<path fill="#3A2C6D" d="M292.826,309.464l-4.133,2.583c-0.517,0-0.517,0.517,0,0.517l4.133,2.066c0.517,0,1.033,0,1.55,0
				l4.133-2.583c0.517,0,0.517-0.517,0-0.517l-4.133-2.066C293.342,309.464,292.826,309.464,292.826,309.464z"/>
			<path fill="#3A2C6D" d="M298.509,305.847l-4.133,2.583c-0.517,0-0.517,0.517,0,0.517l4.133,2.066c0.517,0,1.033,0,1.55,0
				l4.133-2.583c0.517,0,0.517-0.517,0-0.517l-4.133-2.067C299.542,305.847,299.025,305.847,298.509,305.847z"/>
			<path fill="#3A2C6D" d="M348.622,276.916l-4.133,2.583c-0.517,0-0.517,0.517,0,0.517l4.133,2.066c0.517,0,1.033,0,1.55,0
				l4.134-2.583c0.517,0,0.517-0.517,0-0.517l-4.134-2.066C349.655,276.916,349.139,276.916,348.622,276.916z"/>
			<path fill="#3A2C6D" d="M354.306,273.816l-4.134,2.583c-0.517,0-0.517,0.517,0,0.517l4.134,2.066c0.517,0,1.033,0,1.55,0
				l4.133-2.583c0.517,0,0.517-0.517,0-0.517l-4.133-2.067C355.339,273.816,354.822,273.816,354.306,273.816z"/>
			<path fill="#3A2C6D" d="M360.505,270.2l-4.133,2.583c-0.517,0-0.517,0.517,0,0.517l4.133,2.067c0.517,0,1.033,0,1.55,0
				l4.133-2.583c0.517,0,0.517-0.517,0-0.517l-4.133-2.066C361.021,270.2,360.505,270.2,360.505,270.2z"/>
			<path fill="#3A2C6D" d="M366.188,267.1l-4.133,2.583c-0.517,0-0.517,0.517,0,0.517l4.133,2.066c0.517,0,1.033,0,1.55,0
				l4.134-2.583c0.517,0,0-0.517,0-0.517l-4.134-2.067C367.221,266.583,366.704,266.583,366.188,267.1z"/>
			<path fill="#3A2C6D" d="M305.742,301.714l-5.683,3.1c-0.517,0,0,0.517,0,0.517l4.133,2.067c0.517,0,1.033,0,1.55,0l5.683-3.1
				c0.517,0,0.517-0.517,0-0.517l-4.133-2.066C306.775,301.714,306.259,301.714,305.742,301.714z"/>
			<path fill="#3A2C6D" d="M342.939,280.532l-5.683,3.1c-0.517,0-0.517,0.517,0,0.517l4.133,2.066c0.517,0,1.033,0,1.55,0l5.683-3.1
				c0.517,0,0.517-0.517,0-0.517l-4.133-2.066C343.456,280.532,342.939,280.532,342.939,280.532z"/>
			<path fill="#3A2C6D" d="M335.189,285.182l-27.897,16.016c-0.517,0-0.517,0.517,0,0.517l4.133,2.066c0.517,0,1.033,0,1.55,0
				l27.898-16.016c0.517,0,0.517-0.517,0-0.517l-4.134-2.066C336.223,284.666,335.706,284.666,335.189,285.182z"/>
			<path fill="#3A2C6D" d="M308.325,313.597l-4.133,2.583c-0.517,0-0.517,0.517,0,0.517l4.133,2.066c0.517,0,1.033,0,1.55,0
				l4.133-2.583c0.517,0,0.517-0.517,0-0.517l-4.133-2.067C309.358,313.08,308.842,313.08,308.325,313.597z"/>
			<path fill="#3A2C6D" d="M314.524,309.98l-4.133,2.583c-0.517,0-0.517,0.517,0,0.517l4.133,2.067c0.517,0,1.033,0,1.55,0
				l4.133-2.583c0.517,0,0.517-0.517,0-0.517l-4.649-2.066C315.041,309.98,314.524,309.98,314.524,309.98z"/>
			<path fill="#3A2C6D" d="M320.207,306.881l-4.133,2.583c-0.517,0,0,0.517,0,0.517l4.133,2.066c0.517,0,1.033,0,1.551,0
				l4.133-2.583c0.517,0,0.517-0.517,0-0.517l-4.133-2.066C321.24,306.364,320.724,306.364,320.207,306.881z"/>
			<path fill="#3A2C6D" d="M326.407,303.264l-4.133,2.583c-0.517,0,0,0.517,0,0.517l4.133,2.067c0.517,0,1.033,0,1.55,0l4.133-2.583
				c0.517,0,0.517-0.517,0-0.517l-4.649-2.066C326.924,303.264,326.407,303.264,326.407,303.264z"/>
			<path fill="#3A2C6D" d="M332.09,300.165l-4.133,2.583c-0.517,0,0,0.517,0,0.517l4.133,2.066c0.517,0,1.033,0,1.55,0l4.134-2.583
				c0.517,0,0.517-0.517,0-0.517l-4.134-2.066C333.123,299.648,332.606,299.648,332.09,300.165z"/>
			<path fill="#3A2C6D" d="M337.773,296.548l-4.134,2.583c-0.517,0,0,0.517,0,0.517l4.134,2.066c0.517,0,1.033,0,1.55,0l3.616-2.066
				c0.517,0,0.517-0.517,0-0.517l-4.133-2.066C338.807,296.548,338.29,296.548,337.773,296.548z"/>
			<path fill="#3A2C6D" d="M343.973,292.932l-4.133,2.583c-0.517,0,0,0.517,0,0.517l4.133,2.066c0.517,0,1.033,0,1.55,0l4.133-2.583
				c0.517,0,0-0.517,0-0.517l-4.133-2.066C344.489,292.932,344.489,292.932,343.973,292.932z"/>
			<path fill="#3A2C6D" d="M349.655,289.832l-4.133,2.583c-0.517,0,0,0.517,0,0.517l4.133,2.066c0.517,0,1.033,0,1.55,0l4.134-2.583
				c0.517,0,0-0.517,0-0.517l-4.134-2.067C350.688,289.315,350.172,289.315,349.655,289.832z"/>
			<path fill="#3A2C6D" d="M355.855,286.215l-4.134,2.583c-0.517,0,0,0.517,0,0.517l4.134,2.067c0.517,0,1.033,0,1.55,0l4.133-2.583
				c0.517,0,0-0.517,0-0.517l-4.133-2.066C356.372,286.215,355.855,286.215,355.855,286.215z"/>
			<path fill="#3A2C6D" d="M361.538,283.115l-4.133,2.583c-0.517,0-0.517,0.517,0,0.517l4.133,2.066c0.517,0,1.033,0,1.55,0
				l4.133-2.583c0.517,0,0-0.517,0-0.517l-4.133-2.067C362.571,282.599,362.055,282.599,361.538,283.115z"/>
			<path fill="#3A2C6D" d="M367.221,279.499l-4.133,2.583c-0.517,0-0.517,0.517,0,0.517l4.133,2.067c0.517,0,1.034,0,1.551,0
				l4.133-2.583c0.517,0,0-0.517,0-0.517l-4.133-1.55C368.255,279.499,367.737,279.499,367.221,279.499z"/>
			<path fill="#3A2C6D" d="M373.421,275.883l-4.133,2.583c-0.517,0-0.517,0.517,0,0.517l4.133,2.066c0.517,0,1.033,0,1.55,0
				l4.133-2.583c0.517,0,0-0.517,0-0.517l-4.133-2.066C374.454,275.883,373.938,275.883,373.421,275.883z"/>
			<path fill="#3A2C6D" d="M302.642,316.697l-8.783,5.166c-0.517,0-0.517,0.517,0,0.517l4.133,2.066c0.517,0,1.033,0,1.55,0
				l8.783-5.167c0.517,0,0.517-0.517,0-0.517l-4.133-2.066C303.675,316.697,303.159,316.697,302.642,316.697z"/>
			<path fill="#3A2C6D" d="M300.059,312.047l-4.133,2.583c-0.517,0-0.517,0.517,0,0.517l4.133,2.066c0.517,0,1.033,0,1.55,0
				l4.133-2.583c0.516,0,0.516-0.517,0-0.517l-4.133-2.066C300.575,311.53,300.059,311.53,300.059,312.047z"/>
			<path fill="#3A2C6D" d="M305.742,308.431l-4.133,2.583c-0.517,0-0.517,0.517,0,0.517l4.133,2.066c0.516,0,1.034,0,1.55,0
				l4.133-2.583c0.517,0,0.517-0.517,0-0.517l-4.649-2.066C306.775,308.431,306.259,308.431,305.742,308.431z"/>
			<path fill="#3A2C6D" d="M311.941,305.331l-4.133,2.583c-0.517,0-0.517,0.517,0,0.517l4.133,2.583c0.517,0,1.033,0,1.55,0
				l4.133-2.583c0.517,0,0.517-0.517,0-0.517l-4.133-2.067C312.975,304.814,312.458,304.814,311.941,305.331z"/>
			<path fill="#3A2C6D" d="M317.624,301.714l-4.133,2.583c-0.517,0-0.517,0.517,0,0.517l4.133,2.067c0.517,0,1.033,0,1.55,0
				l4.134-2.583c0.517,0,0.517-0.517,0-0.517l-4.134-2.066C318.657,301.714,318.141,301.714,317.624,301.714z"/>
			<path fill="#3A2C6D" d="M323.308,298.098l-4.134,2.583c-0.517,0-0.517,0.517,0,0.517l4.134,2.066c0.517,0,1.033,0,1.55,0
				l4.133-2.583c0.517,0,0.517-0.517,0-0.517l-4.133-2.067C324.341,298.098,323.824,298.098,323.308,298.098z"/>
			<path fill="#3A2C6D" d="M329.507,294.998l-4.133,2.583c-0.517,0-0.517,0.517,0,0.517l4.133,2.067c0.517,0,1.033,0,1.55,0
				l4.133-2.583c0.517,0,0.517-0.517,0-0.517l-4.133-2.066C330.023,294.481,329.507,294.481,329.507,294.998z"/>
			<path fill="#3A2C6D" d="M335.189,291.382l-4.133,2.583c-0.517,0-0.517,0.517,0,0.517l4.133,2.066c0.517,0,1.033,0,1.55,0
				l4.134-2.583c0.517,0,0.517-0.517,0-0.517l-4.134-2.066C336.223,291.382,335.706,291.382,335.189,291.382z"/>
			<path fill="#3A2C6D" d="M340.873,288.282l-4.134,2.583c-0.517,0-0.517,0.517,0,0.517l4.134,2.066c0.517,0,1.033,0,1.55,0
				l4.133-2.583c0.517,0,0.517-0.517,0-0.517l-4.133-2.066C341.906,287.765,341.39,287.765,340.873,288.282z"/>
			<path fill="#3A2C6D" d="M347.072,284.666l-4.133,2.583c-0.517,0-0.517,0.517,0,0.517l4.133,2.066c0.517,0,1.033,0,1.55,0
				l4.134-2.583c0.517,0,0.517-0.517,0-0.517l-4.65-2.066C348.105,284.666,347.589,284.666,347.072,284.666z"/>
			<path fill="#3A2C6D" d="M353.272,281.049l-4.134,2.583c-0.517,0-0.517,0.517,0,0.517l4.134,2.066c0.517,0,1.033,0,1.55,0
				l3.616-2.066c0.517,0,0.517-0.517,0-0.517l-4.133-2.066C353.789,281.049,353.272,281.049,353.272,281.049z"/>
			<path fill="#3A2C6D" d="M358.955,277.949l-4.133,2.583c-0.517,0-0.517,0.517,0,0.517l4.133,2.066c0.517,0,1.033,0,1.55,0
				l4.133-2.583c0.517,0,0.517-0.517,0-0.517l-4.133-2.066C359.472,277.949,358.955,277.949,358.955,277.949z"/>
			<path fill="#3A2C6D" d="M371.871,270.2l-11.366,6.716c-0.517,0-0.517,0.517,0,0.517l4.133,2.066c0.517,0,1.033,0,1.55,0
				l11.366-6.716c0.517,0,0.517-0.517,0-0.517l-4.133-2.066C372.904,270.2,372.388,270.2,371.871,270.2z"/>
			<path fill="#3A2C6D" d="M293.859,315.147l-5.683,3.1c-0.517,0-0.517,0.517,0,0.517l4.133,2.066c0.517,0,1.033,0,1.55,0l5.683-3.1
				c0.517,0,0.517-0.517,0-0.517l-4.133-2.066C294.893,315.147,294.376,315.147,293.859,315.147z"/>
			<path fill="#3A2C6D" d="M395.119,283.632l-83.694,48.564c-0.517,0-0.517,0.517,0,0.517l2.066,1.033c0.517,0,1.033,0,1.55,0
				l83.695-48.563c0.516,0,0.516-0.517,0-0.517l-2.067-1.034C395.636,283.632,395.636,283.632,395.119,283.632z"/>
			<polygon id="_Контур_18" fill="#BFBFBF" points="296.959,285.699 297.476,286.215 311.941,294.481 337.773,279.499 
				338.29,279.499 323.308,270.716 			"/>
			<polygon id="_Контур_19" fill="#E5E5E5" points="297.476,286.215 311.941,294.481 337.773,279.499 323.308,271.233 			"/>
			<path id="_Контур_20" fill="#E5E5E5" d="M256.145,305.331v1.55c0,2.066,1.033,3.616,2.583,4.649l51.147,29.448
				c0.517,0,1.55,0,2.066,0c1.033,0,2.066,0,2.583-0.517l91.961-53.213c1.55-1.033,2.583-2.583,2.583-4.65v-1.55l-97.127,56.83
				L256.145,305.331z"/>
			<path id="_Контур_21" fill="#F4F4F4" d="M313.491,338.396c1.55,0.517,3.616,0.517,5.166-0.517l91.961-53.213
				c1.55-1.034,2.583-2.583,3.1-4.133l10.333-59.93c0-0.517,0-0.517,0-1.033c0-1.55-0.517-3.1-1.55-4.649l-95.577,55.28
				c-1.033,0.517-2.066,2.066-2.066,3.1L313.491,338.396z"/>
			<path id="_Контур_22" fill="#E5E5E5" d="M311.941,337.879L311.941,337.879l1.55,1.033l10.85-65.096
				c0-1.55,1.033-2.583,2.066-3.1l95.577-55.28c-0.517-0.517-1.033-0.517-1.55-1.033l-95.061,55.28
				c-1.033,0.517-2.066,2.066-2.066,3.1L311.941,337.879z"/>
		</g>
	</g>
	<path id="_Контур_23" fill="#FFCEA9" d="M242.712,81.111c0,0,1.033,22.732,0.517,24.799
		c-0.517,2.066-10.333,8.783-13.433,11.366c-3.1,2.583,15.499,20.666,24.798,24.798c9.3,4.133,37.714-6.716,38.231-20.665
		s-5.166-25.832-9.299-26.865C279.394,93.511,242.712,81.111,242.712,81.111z"/>
	<path id="_Контур_24" fill="#F4F4F4" d="M240.129,110.043c0,0,16.533,24.798,39.781,26.865
		c7.233-7.233,7.75-32.548-2.067-40.814c0,0,9.3-7.232,15.499-6.199c6.716,4.133,11.883,10.333,14.466,18.082
		c5.683,17.049,8.782,34.614,8.266,52.697c-0.517,24.282,0,85.245,0,85.245c-2.583,14.466-11.366,27.381-24.282,35.131
		c-16.532,9.299-36.165,11.883-54.763,7.75c-9.299-2.066-17.049-8.783-20.149-17.565c1.034-17.049,7.75-51.664,5.167-73.362
		c-2.583-21.699-7.233-37.198-8.783-54.247c-1.55-17.049,2.066-17.049,10.849-23.248
		C229.28,116.759,234.446,113.143,240.129,110.043z"/>
	<path id="_Контур_25" fill="#FFCEA9" d="M266.994,306.364c-4.133-2.583-8.266-5.166-12.916-7.233
		c-4.133-1.55-7.75-3.616-10.849-6.716c-4.133-4.133-10.849-19.116-15.499-33.582c-4.65-16.532-6.716-33.581-5.683-51.146
		c2.066-20.666,9.299-49.597,11.366-60.963c2.066-11.366-2.067-16.532-7.233-20.666c-6.716-5.166-15.499-3.1-20.149,13.949
		c-6.2,22.732-9.299,46.497-10.333,70.262c0,17.565,2.583,35.131,7.75,51.664c5.166,14.466,11.366,27.898,19.632,40.814
		c2.067,3.616,3.1,7.233,6.716,14.982c3.1,7.75,8.783,14.982,14.982,20.149c5.683,4.133,8.783,4.649,9.816,4.133
		c1.034-0.517,1.55-3.1-1.033-5.167c-4.133-3.1-7.75-7.233-10.333-11.366c0,0,5.167,5.167,8.266,7.75s6.2,4.65,9.816,6.2
		c3.617,1.55,8.266-1.55,5.683-3.617s-4.65-3.616-9.816-7.75c-2.583-2.066-5.167-4.649-7.233-7.233
		c3.616,2.583,7.233,5.167,10.849,7.233c3.1,1.55,6.2,2.583,9.816,2.583c1.55,0,4.133-2.583,0.517-5.167
		c-4.649-2.583-8.783-5.167-12.916-8.783c-3.617-3.617-5.683-6.716-4.65-6.716s3.1,2.066,7.233,3.616
		c4.133,1.55,8.783,0,9.299-2.066S271.127,308.431,266.994,306.364z"/>
	<path id="_Контур_26" fill="#FFCEA9" d="M294.376,47.53L294.376,47.53c-2.583-17.565-15.499-30.998-33.582-29.965
		c-19.632,1.033-34.098,17.565-33.064,37.198l0,0c0.517,10.849,6.2,20.666,15.499,26.865c0.517,2.583,1.55,5.167,2.583,7.75
		c6.2,7.749,25.832,12.399,31.515,11.366c6.716-0.517,12.399-5.167,14.466-11.882C297.992,74.396,295.926,55.796,294.376,47.53z"/>
	<path fill="#3A2C6D" d="M242.712,81.111L242.712,81.111l1.55-15.499c0,0-12.399-32.548,17.049-26.348
		c19.632,4.133,24.798,5.683,30.481-7.233s-14.466-24.798-39.781-21.699c-18.082,2.067-31.515,17.049-30.998,35.131
		C221.53,55.28,224.113,74.912,242.712,81.111z"/>
	<path fill="#EDEDED" d="M191.565,169.973c0,0,16.532,16.016,35.648,11.366c2.583-2.066,9.299-39.781,9.299-39.781
		s0-21.182-16.016-20.665S191.565,169.973,191.565,169.973z"/>
	<path fill="#EDEDED" d="M314.524,138.458c4.649,0,8.783-2.066,11.883-5.167c-0.517-8.266-11.366-40.814-33.582-42.88
		c6.2,4.133,10.85,9.816,13.432,16.532C310.392,117.276,312.975,127.608,314.524,138.458z"/>
</g>
</svg>
